<?xml version="1.0" encoding="UTF-8" standalone="no"?>
<!DOCTYPE svg PUBLIC "-//W3C//DTD SVG 1.1//EN" "http://www.w3.org/Graphics/SVG/1.1/DTD/svg11.dtd">
<svg width="100%" height="100%" viewBox="0 0 129 129" version="1.1" xmlns="http://www.w3.org/2000/svg" xmlns:xlink="http://www.w3.org/1999/xlink" xml:space="preserve" xmlns:serif="http://www.serif.com/" style="fill-rule:evenodd;clip-rule:evenodd;stroke-linejoin:round;stroke-miterlimit:2;">
    <g transform="matrix(1,0,0,1,-158,-166)">
        <g>
            <g transform="matrix(8.35759e-17,-1.3649,1.3649,8.35759e-17,113.993,497.553)">
                <path d="M242.424,56.38C242.424,43.44 231.919,32.935 218.979,32.935L172.089,32.935C159.15,32.935 148.644,43.44 148.644,56.38L148.644,103.27C148.644,116.209 159.15,126.715 172.089,126.715L218.979,126.715C231.919,126.715 242.424,116.209 242.424,103.27L242.424,56.38Z" style="fill:url(#_Linear1);"/>
            </g>
            <g transform="matrix(8.35759e-17,-1.3649,1.3649,8.35759e-17,113.993,497.553)">
                <path d="M242.424,56.38C242.424,43.44 231.919,32.935 218.979,32.935L172.089,32.935C159.15,32.935 148.644,43.44 148.644,56.38L148.644,103.27C148.644,116.209 159.15,126.715 172.089,126.715L218.979,126.715C231.919,126.715 242.424,116.209 242.424,103.27L242.424,56.38Z" style="fill:url(#_Linear2);"/>
            </g>
            <g transform="matrix(1,0,0,1,13.6022,157.841)">
                <g transform="matrix(0.877454,0,0,0.877454,15.8702,-1.16263)">
                    <text x="194.25px" y="103.007px" style="font-family:'Arial-BoldMT', 'Arial', sans-serif;font-weight:700;font-size:44.745px;fill:white;">+5</text>
                </g>
                <g transform="matrix(-0.930826,-0.365462,-0.365462,0.930826,315.049,30.2654)">
                    <path d="M82.616,45.377C102.317,45.572 118.252,61.627 118.252,81.375C118.252,101.244 102.121,117.375 82.252,117.375C62.383,117.375 46.252,101.244 46.252,81.375L57.725,81.375C58.348,94.068 68.85,104.183 81.696,104.183C94.942,104.183 105.696,93.429 105.696,80.183C105.696,67.244 95.434,56.682 82.616,56.2L82.616,64.195L54.545,50.16L82.616,36.124L82.616,45.377Z" style="fill:white;"/>
                </g>
            </g>
        </g>
    </g>
    <defs>
        <linearGradient id="_Linear1" x1="0" y1="0" x2="1" y2="0" gradientUnits="userSpaceOnUse" gradientTransform="matrix(93.7799,0,0,93.7799,148.644,79.8246)"><stop offset="0" style="stop-color:white;stop-opacity:1"/><stop offset="0" style="stop-color:rgb(165,12,3);stop-opacity:1"/><stop offset="1" style="stop-color:rgb(255,149,145);stop-opacity:1"/></linearGradient>
        <linearGradient id="_Linear2" x1="0" y1="0" x2="1" y2="0" gradientUnits="userSpaceOnUse" gradientTransform="matrix(93.7799,0,0,93.7799,148.644,79.8246)"><stop offset="0" style="stop-color:white;stop-opacity:1"/><stop offset="0" style="stop-color:rgb(165,12,3);stop-opacity:1"/><stop offset="1" style="stop-color:rgb(255,149,145);stop-opacity:1"/></linearGradient>
    </defs>
</svg>
