<?xml version="1.0" encoding="UTF-8" standalone="no"?>
<!DOCTYPE svg PUBLIC "-//W3C//DTD SVG 1.1//EN" "http://www.w3.org/Graphics/SVG/1.1/DTD/svg11.dtd">
<svg width="100%" height="100%" viewBox="0 0 129 129" version="1.1" xmlns="http://www.w3.org/2000/svg" xmlns:xlink="http://www.w3.org/1999/xlink" xml:space="preserve" xmlns:serif="http://www.serif.com/" style="fill-rule:evenodd;clip-rule:evenodd;stroke-linejoin:round;stroke-miterlimit:2;">
    <g transform="matrix(1,0,0,1,-156,-8)">
        <g>
            <g transform="matrix(8.35759e-17,-1.3649,1.3649,8.35759e-17,111.347,339.258)">
                <path d="M242.424,56.38C242.424,43.44 231.919,32.935 218.979,32.935L172.089,32.935C159.15,32.935 148.644,43.44 148.644,56.38L148.644,103.27C148.644,116.209 159.15,126.715 172.089,126.715L218.979,126.715C231.919,126.715 242.424,116.209 242.424,103.27L242.424,56.38Z" style="fill:url(#_Linear1);"/>
            </g>
            <g transform="matrix(2.437,0,0,2.437,-479.117,-832.108)">
                <path d="M282.866,358L291.134,358C291.701,358 292.445,358.369 292.794,358.824L295.066,362.174C295.288,362.5 295.657,362.698 296.051,362.698L300.937,362.698C302.077,362.698 302.999,363.628 302.999,364.781L302.999,379.917C302.999,381.068 302.077,382.001 300.937,382.001L273.063,382.001C271.923,382.001 271,381.07 271,379.917L271,364.781C271,363.63 271.923,362.698 273.063,362.698L277.969,362.698C278.35,362.698 278.707,362.508 278.923,362.192L281.205,358.824C281.555,358.37 282.302,358 282.866,358Z" style="fill:none;stroke:white;stroke-width:2.05px;"/>
            </g>
            <g transform="matrix(2.07598,0,0,2.05367,-375.445,-691.338)">
                <path d="M279.774,372.088C279.774,376.122 283.009,379.392 287,379.392C290.991,379.392 294.225,376.122 294.225,372.088C294.225,368.053 290.991,364.784 287,364.784C283.009,364.784 279.774,368.053 279.774,372.088Z" style="fill:none;stroke:white;stroke-width:2.42px;"/>
            </g>
            <g transform="matrix(2.437,0,0,2.437,-479.117,-832.108)">
                <path d="M274.096,359.044L276.162,359.044C276.732,359.044 277.193,359.508 277.193,360.088L277.193,361.131L273.064,361.131L273.064,360.088C273.064,359.511 273.523,359.044 274.096,359.044Z" style="fill:white;"/>
            </g>
            <g transform="matrix(0.108148,0.108148,-1.16838,1.16838,319.243,-39.2801)">
                <rect x="45.614" y="67.703" width="46.73" height="46.73" style="fill:rgb(255,0,0);"/>
            </g>
        </g>
    </g>
    <defs>
        <linearGradient id="_Linear1" x1="0" y1="0" x2="1" y2="0" gradientUnits="userSpaceOnUse" gradientTransform="matrix(93.7799,0,0,93.7799,148.644,79.8246)"><stop offset="0" style="stop-color:rgb(11,65,77);stop-opacity:1"/><stop offset="1" style="stop-color:rgb(76,232,239);stop-opacity:1"/></linearGradient>
    </defs>
</svg>
