<?xml version="1.0" encoding="UTF-8" standalone="no"?>
<!DOCTYPE svg PUBLIC "-//W3C//DTD SVG 1.1//EN" "http://www.w3.org/Graphics/SVG/1.1/DTD/svg11.dtd">
<svg width="100%" height="100%" viewBox="0 0 129 129" version="1.1" xmlns="http://www.w3.org/2000/svg" xmlns:xlink="http://www.w3.org/1999/xlink" xml:space="preserve" xmlns:serif="http://www.serif.com/" style="fill-rule:evenodd;clip-rule:evenodd;stroke-linejoin:round;stroke-miterlimit:2;">
    <g transform="matrix(1,0,0,1,-13,-9)">
        <g>
            <g transform="matrix(8.35759e-17,-1.3649,1.3649,8.35759e-17,-31.8742,340.852)">
                <path d="M242.424,56.38C242.424,43.44 231.919,32.935 218.979,32.935L172.089,32.935C159.15,32.935 148.644,43.44 148.644,56.38L148.644,103.27C148.644,116.209 159.15,126.715 172.089,126.715L218.979,126.715C231.919,126.715 242.424,116.209 242.424,103.27L242.424,56.38Z" style="fill:url(#_Linear1);"/>
            </g>
            <g transform="matrix(1,0,0,1,-1.15153,1.85064)">
                <g id="Dictate" transform="matrix(1.74702,0,0,1.74702,-314.85,-596.992)">
                    <path d="M226.5,395.907C232.421,395.169 237,390.121 237,384.003L237,379L236.618,379C236.343,378.693 235.944,378.5 235.5,378.5C235.056,378.5 234.657,378.693 234.382,379L234,379L234,384.001C234,388.971 229.972,393 225,393C220.029,393 216,388.98 216,384.001L216,379L215.618,379C215.343,378.693 214.944,378.5 214.5,378.5C214.056,378.5 213.657,378.693 213.382,379L213,379L213,384.003C213,390.128 217.581,395.17 223.5,395.907L223.5,400L218.505,400C217.667,400 217,400.672 217,401.5C217,402.334 217.674,403 218.505,403L231.495,403C232.333,403 233,402.328 233,401.5C233,400.666 232.326,400 231.495,400L226.5,400L226.5,395.907ZM218,369.993C218,366.131 221.142,363 225,363C228.866,363 232,366.13 232,369.993L232,384.007C232,387.869 228.858,391 225,391C221.134,391 218,387.87 218,384.007L218,369.993ZM221,370.01C221,367.795 222.795,366 225,366C227.209,366 229,367.8 229,370.01L229,383.99C229,386.205 227.205,388 225,388C222.791,388 221,386.2 221,383.99L221,370.01Z" style="fill:white;"/>
                </g>
                <g transform="matrix(0.108148,0.108148,-1.16838,1.16838,177.172,-41.7453)">
                    <rect x="45.614" y="67.703" width="46.73" height="46.73" style="fill:rgb(255,0,0);"/>
                </g>
            </g>
        </g>
    </g>
    <defs>
        <linearGradient id="_Linear1" x1="0" y1="0" x2="1" y2="0" gradientUnits="userSpaceOnUse" gradientTransform="matrix(93.7799,0,0,93.7799,148.644,79.8246)"><stop offset="0" style="stop-color:rgb(11,65,77);stop-opacity:1"/><stop offset="1" style="stop-color:rgb(76,232,239);stop-opacity:1"/></linearGradient>
    </defs>
</svg>
