<?xml version="1.0" encoding="UTF-8" standalone="no"?>
<!DOCTYPE svg PUBLIC "-//W3C//DTD SVG 1.1//EN" "http://www.w3.org/Graphics/SVG/1.1/DTD/svg11.dtd">
<svg width="100%" height="100%" viewBox="0 0 129 129" version="1.1" xmlns="http://www.w3.org/2000/svg" xmlns:xlink="http://www.w3.org/1999/xlink" xml:space="preserve" xmlns:serif="http://www.serif.com/" style="fill-rule:evenodd;clip-rule:evenodd;stroke-linejoin:round;stroke-miterlimit:2;">
    <g transform="matrix(1,0,0,1,-299,-14)">
        <g>
            <g transform="matrix(8.35759e-17,-1.3649,1.3649,8.35759e-17,254.315,345.227)">
                <path d="M242.424,56.38C242.424,43.44 231.919,32.935 218.979,32.935L172.089,32.935C159.15,32.935 148.644,43.44 148.644,56.38L148.644,103.27C148.644,116.209 159.15,126.715 172.089,126.715L218.979,126.715C231.919,126.715 242.424,116.209 242.424,103.27L242.424,56.38Z"/>
            </g>
            <g id="Reply--small-" serif:id="Reply (small)" transform="matrix(2.25187,8.85489e-32,0,2.39465,-652.888,-452.619)">
                <path d="M450,208.5L450,202L438.5,213L450,224L450,217.5C455.5,217.5 460,222 460,227.5C460,230.3 458.9,232.8 457.1,234.6C461.2,232.2 464,227.7 464,222.5C464,214.7 457.7,208.5 450,208.5Z" style="fill:white;fill-rule:nonzero;"/>
            </g>
        </g>
    </g>
</svg>
