<?xml version="1.0" encoding="UTF-8" standalone="no"?>
<!DOCTYPE svg PUBLIC "-//W3C//DTD SVG 1.1//EN" "http://www.w3.org/Graphics/SVG/1.1/DTD/svg11.dtd">
<svg width="100%" height="100%" viewBox="0 0 129 129" version="1.1" xmlns="http://www.w3.org/2000/svg" xmlns:xlink="http://www.w3.org/1999/xlink" xml:space="preserve" xmlns:serif="http://www.serif.com/" style="fill-rule:evenodd;clip-rule:evenodd;">
    <g transform="matrix(1,0,0,1,-733,-167)">
        <g>
            <g transform="matrix(8.35759e-17,-1.3649,1.3649,8.35759e-17,688.656,498.068)">
                <path d="M242.424,56.38C242.424,43.44 231.919,32.935 218.979,32.935L172.089,32.935C159.15,32.935 148.644,43.44 148.644,56.38L148.644,103.27C148.644,116.209 159.15,126.715 172.089,126.715L218.979,126.715C231.919,126.715 242.424,116.209 242.424,103.27L242.424,56.38Z"/>
            </g>
            <g id="logo-cnn" transform="matrix(0.110731,0,0,0.110731,797.608,220.604)">
                <g transform="matrix(1,0,0,1,-450,-210)">
                    <clipPath id="_clip1">
                        <rect x="0" y="0" width="900" height="420"/>
                    </clipPath>
                    <g clip-path="url(#_clip1)">
                        <path d="M280,120L210,120C160.627,120 120,160.627 120,210C120,259.373 160.627,300 210,300L288.3,300C294.718,300 300,294.718 300,288.3L300,81.7C300.053,36.917 336.917,0.096 381.7,0.096C410.956,0.096 438.063,15.811 452.6,41.2L540,194.1L540,81.7C540.053,36.917 576.917,0.096 621.7,0.096C650.956,0.096 678.063,15.811 692.6,41.2L780,194.1L780,0L830,0L840,10L850,0L900,0L900,338.3C899.947,383.083 863.083,419.904 818.3,419.904C789.044,419.904 761.937,404.189 747.4,378.8L660,225.9L660,338.3C659.947,383.083 623.083,419.904 578.3,419.904C549.044,419.904 521.937,404.189 507.4,378.8L420,225.9L420,338.3C420,383.119 383.119,420 338.3,420L210,420C94.797,420 0,325.203 0,210C0,94.797 94.797,0 210,0L280,0L280,50L270,60L280,70L280,120Z" style="fill:rgb(204,0,0);fill-rule:nonzero;"/>
                        <path d="M280,60L210,60C127.712,60 60,127.712 60,210C60,292.288 127.712,360 210,360L338.3,360C350.204,360 360,350.204 360,338.3L360,81.7C360.02,69.81 369.81,60.037 381.7,60.037C389.448,60.037 396.63,64.187 400.5,70.9L559.5,349.1C563.37,355.813 570.552,359.963 578.3,359.963C590.19,359.963 599.98,350.19 600,338.3L600,81.7C600.02,69.81 609.81,60.037 621.7,60.037C629.448,60.037 636.63,64.187 640.5,70.9L799.5,349.1C803.37,355.813 810.552,359.963 818.3,359.963C830.19,359.963 839.98,350.19 840,338.3L840,0" style="fill:none;fill-rule:nonzero;stroke:white;stroke-width:20px;"/>
                    </g>
                </g>
            </g>
        </g>
    </g>
</svg>
