<?xml version="1.0" encoding="UTF-8" standalone="no"?>
<!DOCTYPE svg PUBLIC "-//W3C//DTD SVG 1.1//EN" "http://www.w3.org/Graphics/SVG/1.1/DTD/svg11.dtd">
<svg width="100%" height="100%" viewBox="0 0 129 129" version="1.1" xmlns="http://www.w3.org/2000/svg" xmlns:xlink="http://www.w3.org/1999/xlink" xml:space="preserve" xmlns:serif="http://www.serif.com/" style="fill-rule:evenodd;clip-rule:evenodd;stroke-linejoin:round;stroke-miterlimit:2;">
    <g transform="matrix(1,0,0,1,-872,-167)">
        <g>
            <g transform="matrix(8.35759e-17,-1.3649,1.3649,8.35759e-17,827.831,498.068)">
                <path d="M242.424,56.38C242.424,43.44 231.919,32.935 218.979,32.935L172.089,32.935C159.15,32.935 148.644,43.44 148.644,56.38L148.644,103.27C148.644,116.209 159.15,126.715 172.089,126.715L218.979,126.715C231.919,126.715 242.424,116.209 242.424,103.27L242.424,56.38Z"/>
            </g>
            <g id="raw-logo-sublime-text" transform="matrix(0.031972,0,0,0.031972,936.783,219.882)">
                <g transform="matrix(1,0,0,1,-1250,-1249.5)">
                    <path d="M2403,2499L97.003,2499C43.856,2499 0.22,2455.36 0.22,2402.22L0.22,96.782C0.22,43.636 43.856,0 97.003,0L2403,0C2456.14,0 2499.78,43.636 2499.78,96.782L2499.78,2402.78C2499.22,2455.92 2456.14,2499 2403,2499Z" style="fill:rgb(77,77,78);fill-rule:nonzero;"/>
                    <path d="M576.439,754.679L1884.4,339.578C1884.4,339.578 1977.27,290.907 1954.89,380.976L1958.25,780.972C1958.25,780.972 1974.47,839.713 1893.91,854.259L1362.45,1020.41L576.439,754.679Z" style="fill:rgb(248,152,32);fill-rule:nonzero;"/>
                    <path d="M576.439,754.679C576.439,754.679 524.971,766.987 540.076,854.818L537.279,1240.27C537.279,1240.27 532.803,1288.94 625.11,1308.52L1921.32,1725.86C1921.32,1725.86 1964.96,1743.2 1959.92,1689.5L1960.48,1259.85C1960.48,1259.85 1972.79,1215.65 1892.23,1186.56L1362.45,1020.41L576.439,754.679Z" style="fill:rgb(248,152,32);fill-rule:nonzero;"/>
                    <path d="M1147.62,1476.35L596.019,1644.74C596.019,1644.74 529.447,1646.98 537.279,1771.73C545.111,1896.49 536.719,2147.67 536.719,2147.67C536.719,2147.67 542.314,2194.11 606.089,2167.26L1914.05,1749.91C1914.05,1749.91 1960.48,1738.17 1921.32,1725.3C1882.16,1712.99 1147.62,1476.35 1147.62,1476.35Z" style="fill:url(#_Linear1);fill-rule:nonzero;"/>
                </g>
            </g>
        </g>
    </g>
    <defs>
        <linearGradient id="_Linear1" x1="0" y1="0" x2="1" y2="0" gradientUnits="userSpaceOnUse" gradientTransform="matrix(1323.08,-457.775,457.775,1323.08,613.239,1919.08)"><stop offset="0" style="stop-color:rgb(248,152,34);stop-opacity:1"/><stop offset="0.23" style="stop-color:rgb(248,152,34);stop-opacity:1"/><stop offset="1" style="stop-color:rgb(194,120,24);stop-opacity:1"/></linearGradient>
    </defs>
</svg>
