<?xml version="1.0" encoding="UTF-8" standalone="no"?>
<!DOCTYPE svg PUBLIC "-//W3C//DTD SVG 1.1//EN" "http://www.w3.org/Graphics/SVG/1.1/DTD/svg11.dtd">
<svg width="100%" height="100%" viewBox="0 0 129 129" version="1.1" xmlns="http://www.w3.org/2000/svg" xmlns:xlink="http://www.w3.org/1999/xlink" xml:space="preserve" xmlns:serif="http://www.serif.com/" style="fill-rule:evenodd;clip-rule:evenodd;stroke-linejoin:round;stroke-miterlimit:2;">
    <g transform="matrix(1,0,0,1,-23,-617)">
        <g transform="matrix(1,0,0,1,8.70617,466.264)">
            <g transform="matrix(8.35759e-17,-1.3649,1.3649,8.35759e-17,-30.5185,482.479)">
                <path d="M242.424,56.38C242.424,43.44 231.919,32.935 218.979,32.935L172.089,32.935C159.15,32.935 148.644,43.44 148.644,56.38L148.644,103.27C148.644,116.209 159.15,126.715 172.089,126.715L218.979,126.715C231.919,126.715 242.424,116.209 242.424,103.27L242.424,56.38Z" style="fill:url(#_Linear1);"/>
            </g>
            <g transform="matrix(2,0,0,2,-2.06683,-229.405)">
                <path d="M27.5,227.971L35.004,234.602C35.824,235.326 36.5,235.026 36.5,233.918L36.5,212.084C36.5,210.967 35.83,210.67 35.004,211.4L27.5,218.03L21.992,218.03C20.894,218.03 20,218.926 20,220.03L20,225.972C20,227.072 20.892,227.971 21.992,227.971L27.5,227.971ZM44.338,230.97C43.938,231.533 43.157,231.664 42.595,231.264C42.032,230.864 41.901,230.083 42.301,229.521C43.585,227.716 44.286,225.56 44.286,223.296C44.286,220.995 43.562,218.806 42.239,216.985C41.833,216.426 41.957,215.644 42.515,215.239C43.074,214.833 43.856,214.957 44.261,215.515C45.892,217.76 46.786,220.462 46.786,223.296C46.786,226.084 45.921,228.746 44.338,230.97ZM49.839,234.967C49.443,235.532 48.663,235.67 48.098,235.274C47.532,234.878 47.394,234.099 47.79,233.533C49.867,230.566 51,227.019 51,223.296C51,219.535 49.845,215.956 47.73,212.973C47.331,212.409 47.464,211.629 48.027,211.23C48.591,210.831 49.371,210.964 49.77,211.527C52.182,214.93 53.5,219.014 53.5,223.296C53.5,227.536 52.207,231.582 49.839,234.967ZM55.259,238.487C54.852,239.045 54.07,239.166 53.513,238.759C52.955,238.352 52.834,237.57 53.241,237.012C56.317,232.802 58.001,227.732 58.001,222.404C58.001,217.154 56.366,212.153 53.373,207.978C52.971,207.417 53.1,206.636 53.661,206.234C54.222,205.832 55.003,205.96 55.405,206.522C58.7,211.118 60.501,216.627 60.501,222.404C60.501,228.266 58.646,233.853 55.259,238.487Z" style="fill:white;"/>
            </g>
        </g>
    </g>
    <defs>
        <linearGradient id="_Linear1" x1="0" y1="0" x2="1" y2="0" gradientUnits="userSpaceOnUse" gradientTransform="matrix(93.7799,0,0,93.7799,148.644,79.8246)"><stop offset="0" style="stop-color:white;stop-opacity:1"/><stop offset="0" style="stop-color:rgb(5,85,0);stop-opacity:1"/><stop offset="1" style="stop-color:rgb(17,255,0);stop-opacity:1"/></linearGradient>
    </defs>
</svg>
