<?xml version="1.0" encoding="UTF-8" standalone="no"?>
<!DOCTYPE svg PUBLIC "-//W3C//DTD SVG 1.1//EN" "http://www.w3.org/Graphics/SVG/1.1/DTD/svg11.dtd">
<svg width="100%" height="100%" viewBox="0 0 129 129" version="1.1" xmlns="http://www.w3.org/2000/svg" xmlns:xlink="http://www.w3.org/1999/xlink" xml:space="preserve" xmlns:serif="http://www.serif.com/" style="fill-rule:evenodd;clip-rule:evenodd;stroke-linejoin:round;stroke-miterlimit:2;">
    <g transform="matrix(1,0,0,1,-157,-617)">
        <g transform="matrix(1,0,0,1,8.70617,466.264)">
            <g transform="matrix(8.35759e-17,-1.3649,1.3649,8.35759e-17,104.25,482.081)">
                <path d="M242.424,56.38C242.424,43.44 231.919,32.935 218.979,32.935L172.089,32.935C159.15,32.935 148.644,43.44 148.644,56.38L148.644,103.27C148.644,116.209 159.15,126.715 172.089,126.715L218.979,126.715C231.919,126.715 242.424,116.209 242.424,103.27L242.424,56.38Z" style="fill:url(#_Linear1);"/>
            </g>
            <g transform="matrix(1,0,0,1,15.7214,1.23037)">
                <g transform="matrix(2,0,0,2,130.696,-232.031)">
                    <path d="M27.5,227.971L35.004,234.602C35.824,235.326 36.5,235.026 36.5,233.918L36.5,212.084C36.5,210.967 35.83,210.67 35.004,211.4L27.5,218.03L21.992,218.03C20.894,218.03 20,218.926 20,220.03L20,225.972C20,227.072 20.892,227.971 21.992,227.971L27.5,227.971Z" style="fill:white;"/>
                </g>
                <g transform="matrix(2,0,0,2,130.696,-232.031)">
                    <path d="M44.338,230.97C43.938,231.533 43.157,231.664 42.595,231.264C42.032,230.864 41.901,230.083 42.301,229.521C43.585,227.716 44.286,225.56 44.286,223.296C44.286,220.995 43.562,218.806 42.239,216.985C41.833,216.426 41.957,215.644 42.515,215.239C43.074,214.833 43.856,214.957 44.261,215.515C45.892,217.76 46.786,220.462 46.786,223.296C46.786,226.084 45.921,228.746 44.338,230.97Z" style="fill:white;"/>
                </g>
            </g>
        </g>
    </g>
    <defs>
        <linearGradient id="_Linear1" x1="0" y1="0" x2="1" y2="0" gradientUnits="userSpaceOnUse" gradientTransform="matrix(93.7799,0,0,93.7799,148.644,79.8246)"><stop offset="0" style="stop-color:white;stop-opacity:1"/><stop offset="0" style="stop-color:rgb(5,85,0);stop-opacity:1"/><stop offset="1" style="stop-color:rgb(17,255,0);stop-opacity:1"/></linearGradient>
    </defs>
</svg>
